# xmcd
#
# Track frame offsets: 
#        150
#        26662
#        44480
#        114330
#        146960
#        182132
#        245817
#
# Disc length: 3759 seconds
#
# Revision: 3
# Processed by: cddbd v1.5.1PL0 Copyright (c) Steve Scherf et al.
# Submitted via: ExactAudioCopy v0.95a5
#
DISCID=670ead07
DTITLE=Buddy Rich - Tuff Dude
DYEAR=1986
DGENRE=Jazz
TTITLE0=Donna Lee
TTITLE1=Chameleon
TTITLE2=2nd Avenue Blue
TTITLE3=Jumpin' at the Woodside
TTITLE4=Sierra Lonely
TTITLE5=Nica's Dream
TTITLE6=Billie's Bounce
EXTD=
EXTT0=
EXTT1=
EXTT2=
EXTT3=
EXTT4=
EXTT5=
EXTT6=
PLAYORDER=
